<?xml version="1.0" encoding="utf-8"?>
<!-- Generator: Adobe Illustrator 20.1.0, SVG Export Plug-In . SVG Version: 6.00 Build 0)  -->
<svg version="1.1" xmlns="http://www.w3.org/2000/svg" xmlns:xlink="http://www.w3.org/1999/xlink" x="0px" y="0px"
	 viewBox="0 0 45.2 39.4" style="enable-background:new 0 0 45.2 39.4;" xml:space="preserve">
<style type="text/css">
	.st0{fill:#FBD707;}
	.st1{fill:#FDD700;}
	.st2{fill:#F1EAF4;}
</style>
<g id="Layer_2">
</g>
<g id="Layer_1">
	<g id="v6oTMo.tif">
		<g>
			<path class="st0" d="M11.7,9.2c0.2-0.3,0.2-0.7,0.3-1c0.2-0.7,0.5-1.4,1-2.1c0.6-0.9,1.1-1.8,1.9-2.6c1.7-1.8,3.8-3,6.5-3.4
				c0.1,0,0.3,0,0.4-0.1c1,0,2,0,3,0c0.3,0.1,0.6,0.1,0.8,0.2c2.8,0.6,4.9,2,6.6,4c1,1.2,1.9,2.5,2.4,4c0.1,0.3,0.1,0.6,0.3,0.9
				c0,0.7,0,1.4,0,2.1c-0.2,0.3-0.2,0.7-0.3,1c-0.4,1.8-1.3,3.4-2.3,5.1c-1.1,1.9-2.6,3.7-4,5.5c-0.4,0.5-0.4,0.5,0,0.9
				c2.5,2.9,4.5,6.1,6.4,9.3c0.1,0.1,0.1,0.2,0.2,0.3c0,0.1,0,0.1,0,0.2c-0.4,0.5-0.8,1.1-1.1,1.6c-1.1,1.5-2.1,3-3.2,4.4
				c-0.1,0-0.2,0-0.3,0c-0.1-0.3-0.3-0.6-0.5-0.9c-1.9-3.1-4.1-6.1-6.3-9.2c-0.1-0.1-0.1-0.4-0.4-0.1c-2.2,3.1-4.5,6.2-6.5,9.5
				c-0.1,0.2-0.3,0.4-0.3,0.6c-0.1,0-0.2,0-0.3,0c-1.3-1.9-2.6-3.7-4-5.6c-0.3-0.4-0.3-0.7,0-1.1c1.9-3.2,3.9-6.4,6.5-9.3
				c0.2-0.2,0.2-0.4,0-0.6c-1.4-1.7-2.8-3.5-4-5.3c-1-1.7-2-3.4-2.5-5.3c-0.1-0.3-0.1-0.7-0.3-0.9C11.7,10.6,11.7,9.8,11.7,9.2z
				 M30.4,39.3c0.1-0.1,0.2-0.2,0.2-0.3c1.3-1.8,2.5-3.6,3.8-5.4c0.2-0.2,0.1-0.5,0-0.7c-1.9-3.2-3.9-6.4-6.4-9.3
				c-0.4-0.4-0.3-0.5,0-0.9c0.8-1.1,1.7-2.1,2.5-3.2c1.5-2.1,2.9-4.3,3.6-6.7c0.7-2.1,0.7-4.2-0.5-6.2c-1-1.6-2.1-3.2-3.8-4.4
				c-2.3-1.7-5-2.3-7.9-2c-2.7,0.3-4.9,1.4-6.6,3.1C14.5,4,14,4.9,13.4,5.8c-1.5,2.1-1.8,4.3-1.2,6.7c0.6,2.1,1.7,4,2.9,5.8
				c1,1.6,2.3,3,3.4,4.5c0.2,0.3,0.2,0.5,0,0.7c-2.5,2.9-4.6,6.1-6.5,9.4c-0.2,0.3-0.2,0.5,0,0.8c1.3,1.8,2.5,3.5,3.8,5.3
				c0.1,0.1,0.1,0.2,0.2,0.2c0.1-0.2,0.3-0.4,0.4-0.6c1.5-2.5,3.1-4.9,4.9-7.2c0.5-0.7,1-1.5,1.5-2.2c0.2-0.3,0.3-0.3,0.6,0
				c0,0,0.1,0.1,0.1,0.1C26,32.6,28.4,35.8,30.4,39.3z"/>
			<path class="st1" d="M28,23.6c-0.4-0.4-0.3-0.5,0-0.9c0.8-1.1,1.7-2.1,2.5-3.2c1.5-2.1,2.9-4.3,3.6-6.7c0.7-2.1,0.7-4.2-0.5-6.2
				c-1-1.6-2.1-3.2-3.8-4.4c-2.3-1.6-5-2.3-7.9-2c-2.7,0.3-4.9,1.4-6.7,3.1C14.5,4,14,4.9,13.4,5.8c-1.5,2.1-1.8,4.3-1.2,6.7
				c0.6,2.1,1.7,4,2.9,5.8c1,1.6,2.3,3,3.4,4.5c0.2,0.3,0.2,0.5,0,0.7c-2.5,2.9-4.6,6.1-6.5,9.4c-0.2,0.3-0.2,0.5,0,0.8
				c1.3,1.8,2.5,3.5,3.8,5.3c0.1,0.1,0.1,0.2,0.2,0.2c0.1-0.2,0.3-0.4,0.4-0.6c1.5-2.5,3.1-4.9,4.9-7.2c0.5-0.7,1-1.5,1.5-2.2
				c0.2-0.3,0.3-0.3,0.6,0c0,0,0.1,0.1,0.1,0.1c2.3,3.3,4.7,6.5,6.7,10c0.1-0.1,0.2-0.2,0.2-0.3c1.3-1.8,2.5-3.6,3.8-5.4
				c0.2-0.2,0.1-0.5,0-0.7C32.5,29.7,30.5,26.5,28,23.6z M27.4,18.7C27.4,18.7,27.4,18.7,27.4,18.7C27.3,18.7,27.3,18.7,27.4,18.7
				c-0.5,0-1,0-1.4,0c-0.3,0-0.4-0.1-0.4-0.3c0-1.7,0-3.3,0-5c0-0.3-0.1-0.4-0.4-0.4c-1.3,0-2.6,0-3.9,0c-0.4,0-0.4,0.1-0.4,0.4
				c0,1.7,0,3.4,0,5c0,0.2-0.1,0.3-0.4,0.3c-0.6,0-1.1,0-1.7,0c0,0,0,0,0,0c-0.6,0-1.3,0-1.9,0c-0.2,0-0.3-0.1-0.3-0.3
				c0-1,0-2,0-2.9c0,0,0,0,0,0c0-0.1,0-0.2,0-0.3c0-3.4,0-6.8,0-10.2c0-0.3,0.1-0.4,0.4-0.4c1.2,0,2.4,0,3.5,0
				c0.3,0,0.4,0.1,0.4,0.3c0,1.4,0,2.9,0,4.3c0,0.2,0.1,0.3,0.4,0.3c1.3,0,2.6,0,3.9,0c0.3,0,0.4-0.1,0.4-0.3c0-1.4,0-2.9,0-4.3
				c0-0.2,0.1-0.3,0.4-0.3c1,0,2,0,3,0c0,0,0,0,0,0c0,0,0.1,0,0.1,0c0.2,0,0.4,0,0.6,0c0,0,0,0,0.1,0c0.2,0,0.3,0.2,0.3,0.6
				c0,0,0,0,0,0c0,0,0,0,0,0c0,0,0,0,0,0c0,1.7,0,3.4,0,5.2c0,2.1,0,4.2,0,6.2c0,0,0,0,0,0c0,0,0,0,0,0c0,0,0,0,0,0
				c0,0.6,0,1.3,0,1.9c0,0.2-0.1,0.3-0.3,0.3C28.9,18.6,28.1,18.6,27.4,18.7C27.4,18.6,27.4,18.7,27.4,18.7z"/>
		</g>
	</g>
	<g>
		<path class="st2" d="M37,18.3c0-1.6,0-3.3,0-4.9c0-0.8,0.2-1.3,1.1-1.2c1.8,0,3.7,0,5.5,0c0.9,0,1,0.5,1,1.2
			c0,0.8-0.2,1.2-1.1,1.2c-1,0-2,0-3,0c-1.1,0-0.7,0.8-0.7,1.4c0,0.5-0.3,1.3,0.8,1.3c0.9,0,1.8,0,2.8,0c0.9,0,0.8,0.6,0.8,1.1
			c0,0.5,0.3,1.3-0.7,1.3c-0.8,0-1.6,0.1-2.4,0c-1-0.1-1.3,0.3-1.2,1.2c0.1,0.9,0,1.8,0,2.6c0,0.7-0.3,1-1,1c-0.3,0-0.6,0-1,0
			c-0.7,0.1-1-0.2-1-1C37,21.8,37,20.1,37,18.3z"/>
		<path class="st2" d="M6.5,19.5c0,1.3-0.1,2.6,0,3.8c0.1,1.1-0.5,1.1-1.3,1.1c-0.7,0-1.4,0.1-1.4-1.1c0.1-2.6,0-5.1,0-7.7
			c0-0.9-0.3-1.2-1.2-1.1c-0.3,0-0.6,0-0.8,0c-1.3,0-1.8-0.7-1.4-2c0.1-0.4,0.4-0.4,0.8-0.4c2.6,0,5.2,0,7.8,0c1,0,0.8,0.7,0.8,1.2
			c0,0.6,0.1,1.2-0.9,1.2c-2.5,0.1-2.5,0.1-2.5,2.6C6.5,18,6.5,18.8,6.5,19.5z"/>
	</g>
</g>
</svg>
